/* XPM */
static char *fe038f75d9eb468082a51e5d3bbe1187XqeqowK4kY2s2TmM[] = {
/* columns rows colors chars-per-pixel */
"32 32 7 1 ",
"  c None",
". c #523B40",
"X c #606060",
"o c #895A45",
"O c #BF704D",
"+ c #E1A171",
"@ c #A7ACBA",
/* pixels */
"                                ",
"                                ",
"                                ",
"                                ",
"                                ",
"                                ",
"                                ",
"                                ",
"     @@@XXXXX    @@@XXXXX       ",
"    @@@XOOOOOOOO@@@XOooooooo    ",
"   @@@XO+++++++@@@XOooooooooo   ",
"  +@@XO++++++++@@XOooooooooooo  ",
"  +@@XO++++++++@@XOooooooooooo  ",
"  +@@X+++++++++@@XOooooooooooo  ",
" +@@XO++++++++@@XOooOOOOOOOOOOo ",
" +@@XO++++++++@@XOooooooooooooo ",
" +@@XO++++++++@@XOooooooooooooo ",
" O@@XOOO@@XOOO@@XOooooooooooooo ",
" .@@X..@@@@X..@@X....@X....@X.. ",
" +@@XO+@..@XO+@@XOooo@Xoooo@Xoo ",
" +@@XO+@..@XO+@@XOooo@Xoooo@Xoo ",
" O@@XOOO@@XOOO@@XOooo@Xoooo@Xoo ",
" O@@XOOOOOOOOO@@XOoooo@XXXXXooo ",
" O@@XO++++++++@@XOoOOOOOOOOOOOO ",
" O@@XOOOOOOOOO@@XOooooooooooooo ",
" O@@XOOOOOOOOO@@XOooooooooooooo ",
" O@@XOOOOOOOOO@@XOooooooooooooo ",
" O@@XO++++++++@@XOoOOOOOOOOOOOO ",
" O@@XOOOOOOOOO@@XOooooooooooooo ",
" O@@XOOOOOOOOO@@XOooooooooooooo ",
" O@@XOOOOOOOOO@@XOooooooooooooo ",
"                                "
};
