/* XPM */
static char *result[] = {
/* columns rows colors chars-per-pixel */
"32 32 251 2 ",
"   c #523B40",
".  c #554448",
"X  c #4D5C43",
"o  c #645F5D",
"O  c #536148",
"+  c #536249",
"@  c #546248",
"#  c #59674F",
"$  c #5A674F",
"%  c #5A684F",
"&  c #5A6850",
"*  c #5B6850",
"=  c #5D6B53",
"-  c #5D6C50",
";  c #5C6C51",
":  c #5E6E51",
">  c #5D6D52",
",  c #5E6C53",
"<  c #5F6D54",
"1  c #5F6E54",
"2  c #5F7451",
"3  c #706049",
"4  c #716349",
"5  c #71604A",
"6  c #71614A",
"7  c #72614B",
"8  c #73644B",
"9  c #74644C",
"0  c #75654D",
"q  c #7F6A4D",
"w  c #606E55",
"e  c #606F55",
"r  c #637257",
"t  c #627654",
"y  c #637258",
"u  c #697B5B",
"i  c #697F5A",
"p  c #6A7E5A",
"a  c #68785D",
"s  c #69795D",
"d  c #697A5D",
"f  c #6A7A5D",
"g  c #697A5E",
"h  c #6A7A5E",
"j  c #6A7B5E",
"k  c #6B7D5D",
"l  c #6C7C5F",
"z  c #606060",
"x  c #676869",
"c  c #72656E",
"v  c #697564",
"b  c #6E7F61",
"n  c #717376",
"m  c #845A47",
"M  c #895A45",
"N  c #8A5D49",
"B  c #965F47",
"V  c #8B6B4D",
"C  c #8C6B4E",
"Z  c #8E704E",
"A  c #8E714E",
"S  c #8F724F",
"D  c #836658",
"F  c #AB684A",
"G  c #B46E4F",
"H  c #BA6E4C",
"J  c #BF704D",
"K  c #A76C51",
"L  c #BD7251",
"P  c #BC7658",
"I  c #917866",
"U  c #947971",
"Y  c #6E815F",
"T  c #6F8260",
"R  c #708163",
"E  c #738763",
"W  c #728465",
"Q  c #738566",
"!  c #778B67",
"~  c #768E64",
"^  c #768868",
"/  c #778969",
"(  c #77896A",
")  c #778A6A",
"_  c #788A6A",
"`  c #788B6A",
"'  c #798B6B",
"]  c #788C68",
"[  c #798C6B",
"{  c #7B8F6B",
"}  c #7A8C6C",
"|  c #7C8F6D",
" . c #7C8F6E",
".. c #7A9466",
"X. c #7D966A",
"o. c #7D936C",
"O. c #7D936D",
"+. c #7D906F",
"@. c #7D916F",
"#. c #7E916F",
"$. c #7F946D",
"%. c #7E966C",
"&. c #79827D",
"*. c #7E9270",
"=. c #7F9270",
"-. c #9E835A",
";. c #80966F",
":. c #839F6E",
">. c #819573",
",. c #829673",
"<. c #829674",
"1. c #839674",
"2. c #849774",
"3. c #839A72",
"4. c #839A73",
"5. c #849B72",
"6. c #859C73",
"7. c #849875",
"8. c #849975",
"9. c #859975",
"0. c #859A75",
"q. c #869A76",
"w. c #879B77",
"e. c #859C74",
"r. c #879C77",
"t. c #889E77",
"y. c #879C78",
"u. c #889C78",
"i. c #899D79",
"p. c #899E79",
"a. c #8B9F7B",
"s. c #919673",
"d. c #959B77",
"f. c #86A171",
"g. c #88A473",
"h. c #8AA874",
"j. c #8DAA77",
"k. c #89A078",
"l. c #89A178",
"z. c #8AA178",
"x. c #8AA07A",
"c. c #8BA07B",
"v. c #8BA17B",
"b. c #8BA27A",
"n. c #8DA77A",
"m. c #8CA17C",
"M. c #8CA27C",
"N. c #8DA37D",
"B. c #8CA57C",
"V. c #8EA57C",
"C. c #8EA47E",
"Z. c #8FA57E",
"A. c #8FA57F",
"S. c #8FA67F",
"D. c #8EAD79",
"F. c #90A67F",
"G. c #90A77F",
"H. c #91A97F",
"J. c #91AE7C",
"K. c #93AF7F",
"L. c #95B37E",
"P. c #95B27F",
"I. c #96B77F",
"U. c #CC825A",
"Y. c #CC825B",
"T. c #DE9D6E",
"R. c #C69072",
"E. c #E1A171",
"W. c #7F8984",
"Q. c #818B85",
"!. c #86818C",
"~. c #8C9098",
"^. c #90A680",
"/. c #91A780",
"(. c #91A881",
"). c #92A881",
"_. c #92A981",
"`. c #93A982",
"'. c #93AA82",
"]. c #93AA83",
"[. c #94AA82",
"{. c #94AA83",
"}. c #94AB83",
"|. c #95AE83",
" X c #96AA86",
".X c #95AC84",
"XX c #96AD84",
"oX c #96AD85",
"OX c #97AE85",
"+X c #97AE86",
"@X c #98AF86",
"#X c #96B480",
"$X c #97B680",
"%X c #97B085",
"&X c #98B086",
"*X c #99B087",
"=X c #99B187",
"-X c #98B881",
";X c #9BBA84",
":X c #9CBA87",
">X c #9DBD85",
",X c #9DBC86",
"<X c #9EBF86",
"1X c #9AB188",
"2X c #9AB288",
"3X c #9BB389",
"4X c #9BB688",
"5X c #9CB788",
"6X c #9CB789",
"7X c #9CB48A",
"8X c #9DBA88",
"9X c #9EBB89",
"0X c #9EB98A",
"qX c #9EBC89",
"wX c #9FBC89",
"eX c #A0BE8B",
"rX c #A0BB8C",
"tX c #BDA79D",
"yX c #A5BA95",
"uX c #A6BB96",
"iX c #9FA3B0",
"pX c #A0A9AA",
"aX c #A7ACBA",
"sX c #A8B5B0",
"dX c #9EC086",
"fX c #9FC188",
"gX c #A0C487",
"hX c #A1C189",
"jX c #A2C689",
"kX c #A3C48B",
"lX c #A3C68A",
"zX c #A4C68B",
"xX c #A2C08C",
"cX c #A3C18D",
"vX c #A5C68D",
"bX c #A5C88A",
"nX c #A4C88B",
"mX c #A5C98B",
"MX c #A6CA8A",
"NX c #A7C88D",
"BX c #A8CA8E",
"VX c #A9CB8F",
"CX c #ABD08F",
"ZX c #ACCE93",
"AX c #ADCC97",
"SX c #A9C198",
"DX c #ACC698",
"FX c #ADD192",
"GX c #AED393",
"HX c #B0D595",
"JX c #B5DD98",
/* pixels */
"uX7X7X7X7X7X7X7X7X7X7X7XJXZX7X7X7X7X7X7X7X7X7X7X7X7X7X7X7X7X7X7X",
"uXrX7X7X7XJXJX7X7X7X7X7XBXkXV.nX7X7X7XcX7X7X7X7X7X7XnX7X7XCXHX7X",
"uXrX7X7X7XnXCX7XvX7X7X7Xz.z.nX6.7X7X7XcX7X7X7X7X7X7XV.nXkX:XBX7X",
"uX7XCXCX7X6.V.7XcX7X7X7X7X7X6.7X7XrX7XrX7X7X7XJXCX7X7XV.,X6.6.7X",
"uX7Xz.nX7X7X7X7XrX7X7X7X7X7X7X7X7X7X7X7X7X7X7XH.<X7X7X7X6.7X7X7X",
"uX7X7Xz.7X7X7X7X7X7X7XCXnX7X7X7XCX7X7X7XCX7X7X7X6.7X7X7X7X7X7X7X",
"uX7X7X7X7X7X7XaXaX~.z z z 7X7X7XpXaXaXz z z z 7X7X7XcX7X7X7X7X7X",
"uX%X7X7X7XHXsXaXaXD J J J J J J aXaXz F M M M M M 7XrX7X7X7X7X7X",
"SX7X%X7X3XNXaXaXz Y.E.E.E.E.E.aXaXz J M M M M M M M 7X7X7X7X7X7X",
"uX7X7X2X=XE.aXz J E.E.E.E.E.E.aXn J M M M M M M M M d.GXBX7X7X7X",
"uX7X|.2XXXE.aXz T.E.E.E.E.E.E.aXn J M M M M M M M M s.zXhXkX7XBX",
"DX7X7X&XE.aXn J E.E.E.E.E.E.aXaXK M M J J J J J J J B 4.;X<XkXH.",
"DX7XFX>XE.aXn J E.E.E.E.E.E.aXaXK M M M M M M M M M M S.e.k.<XV.",
"SX3XMXI.U.aXn J U.R.tXI U.U.aXaXK M M M M M M M M M M v.}.3Xz.7X",
"uX2X$.J.  aXn     aXaXaXz   aXaX.     c z       aXz   q.(.=X7X7X",
"uX2Xb.E E.aXn J E.!.  aXz E.aXaXK M M U z M M M aXz M ,.C.@X7X7X",
"uXeX_.9.E.aXn J E.!.  aXz E.aXaXK M M U z M M M aXz M *.dXmX2X7X",
"uX5X/.2.J aXn J J L P G J J aXaXK M M N iXo o o x m M #.] -XjX7X",
"uX@XA.h.J aXn J E.E.E.E.E.E.aXaXK M J J J J J J J J J  .v.;.$X%X",
"yX&XF.T J aXn J J J J J J J aXaXK M M M M M M M M M M | c.XXB.7X",
"uX6X^.<.J aXn J J J J J J J aXaXK M M M M M M M M M M | M.OX3X7X",
"uX4XF.1.J aXn J T.T.T.T.T.T.aXaXK M H H H H H H H H H j.L.XX3X7X",
"yXqXF.,.J aXn J J J J J J J aXaXK M M M M M M M M M M X.! oX3X7X",
"uXwXF.<.J aXn J J J J J J J aXaXK M M M M M M M M M M k x.XX2X7X",
"uX*XA.1.-.Q.v A Z S V V C C W.&.q 4 3 5 5 6 5 8 7 0 9  .m.XX3X7X",
"uX&XZ.2.u p t 2 X & $ & % & * # O + # & # > # ; = y b @.v..X3X7X",
"uX&XG.0.^ - i @ < < w w 1 w w e , w 1 w < e w w r a Q >.N.OX3X7X",
"uX1X{.p.+.W : s d s Y d s g d j h d ..~ h s s f l R } 8.F.9X2X7X",
"uX2XVXfXq.=.[ _ _ ` { _ %._ ) _ ' ( g.:.) ) f./ [ +.7.M.[.eX7X7X",
"AX3XgXbXF.c.i.u.u.y.l.w.n.y.y.u.r.y.] n.n.D.] w.y.a.#X_.OX0X7X7X",
" XnXlXt.+X.X]._.`.]._.)._._.).'.{.'.O.P.o.K.O.`.'.'.8X&X2X3X7X7X",
"uXz.6.3X7X3X2X3X2X2X2X2X3X2X2X2X2X2X2X3.2X5.3X2X2X3XxX7X7X7X7X7X"
};
