/* XPM */
static char *e1a6d2b44dca46fd8b4c07b7a12d31e1RK2b31lEvU1XH96o[] = {
/* columns rows colors chars-per-pixel */
"32 32 67 1 ",
"  c #533B40",
". c #533C41",
"X c #533D42",
"o c #553E42",
"O c #553E44",
"+ c #606060",
"@ c #616060",
"# c #636161",
"$ c #626262",
"% c #626362",
"& c #885A45",
"* c #895A45",
"= c #8A5A45",
"- c #885A46",
"; c #895A46",
": c #BC6F4D",
"> c #BE6F4D",
", c #BE704D",
"< c #BF704D",
"1 c #BF714D",
"2 c #BD714E",
"3 c #BF714F",
"4 c #BE724F",
"5 c #8AA078",
"6 c #8AA178",
"7 c #8AA179",
"8 c #8DA37B",
"9 c #8DA47C",
"0 c #8EA57C",
"q c #91A77E",
"w c #91A97F",
"e c #E09F70",
"r c #DFA071",
"t c #DFA272",
"y c #E0A070",
"u c #E1A171",
"i c #E0A172",
"p c #93AB81",
"a c #96AF84",
"s c #9DBE86",
"d c #9EBF87",
"f c #9BB288",
"g c #9BB38A",
"h c #9CB389",
"j c #9DB389",
"k c #9CB48A",
"l c #9CB48B",
"z c #9CBA88",
"x c #9DBB88",
"c c #9FB88A",
"v c #A0B98B",
"b c #A0BB8C",
"n c #A2BE8C",
"m c #A7AAB6",
"M c #A8AAB7",
"N c #A6ABB9",
"B c #A7ACB9",
"V c #A7ACBA",
"C c #A8ACB9",
"Z c #A3C18D",
"A c #A4C28E",
"S c #A5C68D",
"D c #A8C88D",
"F c #A9CB8F",
"G c #A9CD8F",
"H c #ACD190",
"J c #B0D892",
/* pixels */
"kkkkZkkkgjkxjljgjgljkkkkSkkkkkkk",
"kSkkbkkSjjgkljgjlcglkSkkbkkSkGkk",
"kbkkkkkbgfJJAjggSllSkbffkkkkZkkk",
"kbkkkJJkjjHddxljSllxkkkHJJkZkZkk",
"kkkkJdJkkg85dxkkxlllggzbdGkkkJFf",
"kkkJdBBN$$$+$qjklBBN$$+#@8kfJddk",
"kkk7CNN$,,,,>,,3BVB$:---====w6wf",
"kkkBBN$>uuuuuuuCVV$,----&===-ffk",
"JduCC$>euuuuuuuCB$,=&=&==&=&=&Sk",
"d7uCN+>tuuuuuuuCC+,==&=&&=&=&=bk",
"7ktBN$ruuuuuuuuCB$,&&======&==vf",
"kuCB$>ruuuuuuuBB$:=&,,,,:,,,,<=k",
"kuCB$>uuuuuuuuCC@,==---=&==-==&f",
"gtBB$,rrtururrCN$:==-&=====-===k",
"k,mB$:>>mN$>>>mN$,=&&&&&&&&-=-=f",
"koNB$ XNNNN$ oNN+    m$   Xm+  f",
"guBB$,uC XC$>uCB$,-=-M@=&=&B+&&k",
"jtBB$,uMO M$,eCC+,&=-m%==&&m$&&g",
"j,BB@><<NN$,,,mN+,=&=M$-&&&m@=&f",
"l,mN$,,>,>3<3,CV$,===-M@+@@@---f",
"c4BB$>euueueyuCB+,=:,,,,,,,,<,,f",
"l,BB$,>,,<<,<<BB$,====&=&==&-==k",
"l,VV%,<<<<<<<<BB+,=&&&=&=&=====f",
"k,VV%,<4<<<<,,BB$,=============k",
"k,BB$,teiiiuuyBC%,=<<<<<,,,,,,,f",
"k,BB$,>>,,,<<,BB$<==---=&=-==-=k",
"k,BB$,,<,,,,<<CB$,=-----=-====&h",
"k4BB$,,,,3,3,,CB%,====--&-==&==h",
"jJJlkxlllllgSgjaddd5kSkSkkkkdkkk",
"g0SHjkgFllDjxjgl8xpgkbkbkkkkkkkk",
"jad0lljxllxlxlxjj0gjkbknkklkHFkk",
"jg7kkllgllllllljggjgkkkkkklggddd"
};
