/* XPM */
static char *_551384713aa4a2aa0ae8a31258c399cFGVMgwQXGzdo7t6u[] = {
/* columns rows colors chars-per-pixel */
"32 32 24 1 ",
"  c #8AA178",
". c #8EA57C",
"X c #91A97F",
"o c #93AB81",
"O c #94AD82",
"+ c #96AF84",
"@ c #9EBC86",
"# c #9EBD87",
"$ c #9EBF86",
"% c #9CB48A",
"& c #9DB888",
"* c #9CBA88",
"= c #9FBA8C",
"- c #A0BB8C",
"; c #A1BD8C",
": c #A2BE8D",
"> c #A3C18D",
", c #A5C68D",
"< c #A7C68E",
"1 c #A8CA8E",
"2 c #A9CB8F",
"3 c #A9CD8F",
"4 c #ACD190",
"5 c #B0D892",
/* pixels */
"%%%%>%%%%%%%%%%%%%%%%%%%,%%%%%%%",
"%,%%-%%,%%%%%%%%%%%%%,%%-%%,%2%%",
"%-%%%%%-%%55>%%%,%%,%-%%%%%%>%%%",
"%-%%%55%%%4$$%%%,%%;%%%455%:%>%%",
"%%%%5$5%%%. $*%%-%%%%%$$$1%%%52%",
"%%%5$$ %%%%% o%%%%%%%%$  .%%5$#%",
"%%%   %%%%%%%%%%555%%% %%%%%o o%",
"%%%55%%%1%:%%,%%5$&%15%%%%:%%%%%",
"5$$$$%%%:%%,%:%%**$#*4%%%%%%%%1%",
"$ $$$%%%-%%-%-%%o $ $o%%%43%%%-%",
" %$$ %%%%%%%%%%%%% % %%,%4$&%%*%",
"%%  %%%%544%%24%,%%%%%%-%X$&;%%%",
"%%%%%%%%4$#$##2%>%%4%%%%%%X. %%%",
"%%%%,%%%o$$###.%%%%#41%%1%%%%%%%",
"%%%%-%%%%.$# O%%,%%.&$%%&%%%%%%%",
"%%%%%%%%%%  %%%%=%%%OO%%:%%%5%%%",
"%%4,%%%%%%%%%%%%%%%%%%%%%534&%%%",
"%%:$1%%%,%%%%%%%%4%%%%%%% $$X%%%",
"%% $$4%%-%%%%5%%$.%%%,%%%%..%%%%",
"%%%  $%%%%%%%$%%$%%%%;%%%%%%%%%%",
":%%%% %%%%1%%o$$$%%%%%%%%%<4%%%%",
"%%%%%%%%%%=%%%.$.%%%,:%%%4*<%%%%",
"%%%,%%5%%%%%%%% %%%%,$&%1;$.%%1%",
"%%%&%%$4%5%%%%%%%,%% %;$$& %%%&%",
"%%,%%%*;2$%%%,%%%--%%o %&&X%%%;%",
"%%*%%%.$$.%>%=%%%%-%%%%. .%%%%%%",
"%%;%%%%X$.%-%%%5%%%%%%%%%%%%,%%%",
"%%%%%1%%o%%%%%% 1%25%%%%%%%%*%%%",
"%55%%*%%%%%%,%%O&;$ %,%,%%%%:%%%",
"%.$5%%%,%%,%-%%%.*X&%:%-%%%%%%%%",
"%+$.%%%-%%:%-%%%%.%%%-%-%%%%52%%",
"%% %%%%%%%%%%%%%%%%%%%%%%%%%%*#*"
};
