/* XPM */
static char *f6ef2b8e904341098e9f43b3e009f27dMT7hpN04pOdFONUw[] = {
/* columns rows colors chars-per-pixel */
"32 32 28 1 ",
"  c #859C73",
". c #8AA178",
"X c #8EA57C",
"o c #8EA77C",
"O c #90A97E",
"+ c #93AC81",
"@ c #97B085",
"# c #98B682",
"$ c #99B882",
"% c #9CBA87",
"& c #9DBC86",
"* c #9EBF86",
"= c #9CB48A",
"- c #A0BB8C",
"; c #A0C188",
": c #A3C48B",
"> c #A2C18C",
", c #A3C18D",
"< c #A4C88B",
"1 c #A7CB8C",
"2 c #A8CA8E",
"3 c #A9CE8D",
"4 c #ABD08F",
"5 c #AACF90",
"6 c #ACCE93",
"7 c #ACD192",
"8 c #B0D595",
"9 c #B5DD98",
/* pixels */
"============96==================",
"=-===99=====2,X<===,======<==48=",
"=-===<4=1===..< ===,======X<:&2=",
"==44= X=,===== ==-=-===94==X&  =",
"==.<====-==============O*=== ===",
"===.=======4<===4===4=== =======",
"===========&.===.&== <====,=====",
"=@===88====.==@=.$=== <===-=====",
"-=@==2::======@== =-=====,======",
"=====4:::=28=======-====-==82===",
"==@==X #%,&;====:@===@=====2::=2",
",====== ##  ==,=,====@=====.&*:O",
",=82=<==  ====-=-=======88==..*X",
"-=4<:X=============88==::2====.=",
"== :& ======59==:==7;==:: ======",
"==+  O=21===:2== :;%+==..=======",
"=,=====2;:==: === &X========77==",
"=-=====oo:=: ===== ===7===== :<=",
"===24==== & ===,=====;<4===== $@",
"=== :=====o====,====+,& ======O=",
"=-====-=====,==-====O$ =========",
"=-====-==@==-======== ===1=71===",
"=,============887======== :& ===",
"=,======68==== &:1:====,= & ====",
"====4o1:17===== #%===-=,== =====",
"====o;;1 =======O+===-=-========",
"===== 1 ========================",
"====== ===,=======98=========,==",
"==87======-=:=====77==8======,==",
"<=17======-=,=====.;,1.===:==%==",
".<:.============== & * ===,=====",
"=. ================ = ====,====="
};
