/* XPM */
static char *_1e6975ac9cb4cdae323add6a32670d7XkCR4EJfleGfoLii[] = {
/* columns rows colors chars-per-pixel */
"32 32 29 1 ",
"  c #D1851E",
". c #8AA178",
"X c #8EA57C",
"o c #91A97F",
"O c #FFD569",
"+ c #93AB81",
"@ c #94AD82",
"# c #95AD83",
"$ c #96AF84",
"% c #9EBC86",
"& c #9EBD87",
"* c #9DBE86",
"= c #9EBF86",
"- c #9EB688",
"; c #9CB48A",
": c #9CBA88",
"> c #9FBA8C",
", c #A0BB8C",
"< c #A1BD8C",
"1 c #A2BE8D",
"2 c #A3C18D",
"3 c #A5C68D",
"4 c #A7C68E",
"5 c #A8CA8E",
"6 c #A9CB8F",
"7 c #A9CD8F",
"8 c #ACD190",
"9 c #B0D892",
"0 c white",
/* pixels */
";;;;2;;;;;;;;;;;;;;;;;;;3;;;;;;;",
";3;;,;;3;;;;;;;;;;;;;3;;:;;3;7;;",
";,;;;;;,;;885;;;3;;3;1;;;;;;2;;;",
";,;;;99;;;8==:;;3;;1;;;89OO ;2;;",
";;;;9=9;;;X.=:;;>;;;;;:=OOOO 96;",
";;;9==.;;;;;.o;;O;;;;;=OOOOO =&;",
";;;...;;;;;;;;;O0O8;;;0000000.+;",
";;;99;;;6;2;;3;;O=&;6000000000;;",
"9====;;;1;;3;1;;=:=:00000O00000;",
"=.===;;;,;;,;>;;+.=00000OOO0000;",
".;==.;;;;;;;;;;;;;00000OO7OO000;",
";;..;;;;988;;68;3OOOOOOO;X=   ;;",
";;;; ;;;8=&=&&6;000000000;oX.;;;",
";;; O ;;+==&&&X00000O00000;;;;;;",
";;;; ;;;;X=&.@OOOOO   OOOO;;;;;;",
";;;;;;;;;;..;OOOOO  +  OOO;;9;;;",
";;92;;OOOOO;OOOOO  ;;;   888=;;;",
";;==OOOOOOOOOOOO  ;;;;;;;.=2o;;;",
";;.OOOOOOOOOOOO  X;;;3;;;;XX;;;;",
";;OOOOO  OOOOOO =;;;;:;;;;;;;;;;",
",;OOO      OOOO==;;;;;;;;;48;;;;",
";      ;;;  OOO X;;;31;-;8%3;;;;",
";     9;;;;     ;;;;3=;-3=,X;;3;",
";    O=8;9;   OO;3;;.:,<2;.;;;:;",
";    O%=7=;   OO;,,;;+.;%Oo-;;:;",
";    O ==X      ;;,;;;;oO0O;;;;;",
";;    OOO      9;;;;;;;;;O;;3;;;",
";;             .6;69;;;;;;;;:;;;",
";99           ;@%:1.;3;3;;;;,;;;",
";X=8         ;;;X:o;;:;,;;;;;;;;",
";$=X;;     ;1;;;;X;;;1;1;;;;86;;",
";;.;;;;;;;;;;;;;;;;;;;;;;;;;;%,:"
};
