/* XPM */
static char *result[] = {
/* columns rows colors chars-per-pixel */
"32 32 165 2 ",
"   c #5C6B50",
".  c #72734C",
"X  c #7D7749",
"o  c #647155",
"O  c #66765A",
"+  c #67785A",
"@  c #6B7B5D",
"#  c #707B53",
"$  c #7C7C51",
"%  c #727C59",
"&  c #6D7E61",
"*  c #9C7E3C",
"=  c #AD7D2D",
"-  c #A77E33",
";  c #867D4C",
":  c #937F45",
">  c #6E835E",
",  c #7D8557",
"<  c #7C855D",
"1  c #7C8A5A",
"2  c #6F8161",
"3  c #728465",
"4  c #758A65",
"5  c #798D66",
"6  c #768969",
"7  c #7A8D6C",
"8  c #779066",
"9  c #7D936C",
"0  c #BB832C",
"q  c #A98439",
"w  c #AC863B",
"e  c #B48331",
"r  c #BE8830",
"t  c #B28C3F",
"y  c #CE841F",
"u  c #D1851E",
"i  c #C38325",
"p  c #C98626",
"a  c #C98728",
"s  c #C2882D",
"d  c #D48B24",
"f  c #D28E29",
"g  c #D79128",
"h  c #D8942C",
"j  c #C98E30",
"k  c #CC9535",
"l  c #D79732",
"z  c #DC9C35",
"x  c #D79D38",
"c  c #D9A13D",
"v  c #E1A43D",
"b  c #95874A",
"n  c #9F8748",
"m  c #878859",
"M  c #99935C",
"N  c #BB9646",
"B  c #AB9551",
"V  c #A39C57",
"C  c #AD9A55",
"Z  c #899365",
"A  c #919468",
"S  c #819572",
"D  c #859B75",
"F  c #879678",
"G  c #879C78",
"H  c #899E79",
"J  c #85A170",
"K  c #89A177",
"L  c #8DA47B",
"P  c #8EA97B",
"I  c #90A77E",
"U  c #9BA479",
"Y  c #91AB7D",
"T  c #95B27F",
"R  c #9AB37F",
"E  c #AFA667",
"W  c #B5A966",
"Q  c #BBB266",
"!  c #A2AC76",
"~  c #A8A977",
"^  c #B2AF71",
"/  c #ACB676",
"(  c #A3B27D",
")  c #AAB17A",
"_  c #B8BC7A",
"`  c #BBBD7B",
"'  c #CA9E44",
"]  c #D8A442",
"[  c #C3A656",
"{  c #C2AB5A",
"}  c #D0AF57",
"|  c #DBB154",
" . c #E7AE45",
".. c #E9B54C",
"X. c #F1BD53",
"o. c #CCBA6C",
"O. c #DBB36E",
"+. c #CBB870",
"@. c #E2B674",
"#. c #F3C157",
"$. c #F6C65B",
"%. c #F7C95D",
"&. c #DAC46D",
"*. c #C8C578",
"=. c #D8C972",
"-. c #EDCD6A",
";. c #FACD61",
":. c #F2CE69",
">. c #FDD266",
",. c #F6D16A",
"<. c #FED469",
"1. c #E1CB72",
"2. c #F5CC75",
"3. c #95AC83",
"4. c #99AE83",
"5. c #97B283",
"6. c #99B286",
"7. c #9CBB85",
"8. c #9CB48A",
"9. c #9EBA8A",
"0. c #A3B482",
"q. c #A4B886",
"w. c #ACBB83",
"e. c #A1BD8B",
"r. c #B4BC81",
"t. c #A7B995",
"y. c #A9BC99",
"u. c #9FC088",
"i. c #ABC285",
"p. c #A3C38B",
"a. c #A6C98C",
"s. c #A9CB8F",
"d. c #A9C097",
"f. c #ABCD91",
"g. c #ACC29B",
"h. c #B1C09F",
"j. c #ADD292",
"k. c #B5DD98",
"l. c #BFCCB5",
"z. c #D3CA84",
"x. c #D6CE91",
"c. c #DCD49A",
"v. c #FCDB86",
"b. c #EFD99A",
"n. c #F2D392",
"m. c #F7DB90",
"M. c #F4DD9A",
"N. c #D4D1A4",
"B. c #FDE4A4",
"V. c #FCE6AB",
"C. c #FFE9B1",
"Z. c #FFEDBF",
"A. c #CDD1C5",
"S. c #DCDDC3",
"D. c #D3DBCB",
"F. c #DAE2D2",
"G. c #F9E8C9",
"H. c #EBE9DE",
"J. c #FFF2D3",
"K. c #FEF4DC",
"L. c #FDF5E2",
"P. c #F3F3E9",
"I. c #FCF7E8",
"U. c #FFF9ED",
"Y. c #FFFEFD",
/* pixels */
"e.8.8.8.f.k.f.8.8.8.8.8.s.p.3.7.9.8.8.8.e.8.8.8.8.8.8.9.u.8.9.j.",
"e.8.8.8.p.a.p.9.p.8.8.8.L L 7.P P 8.8.8.p.8.8.8.8.8.8.3.5.p.u.7.",
"8.a.a.9.Y P 4.8.e.8.8.8.6.6.3.3.8.8.9.8.9.8.8.8.f.f.e.8.3.5.7.K ",
"8.3.p.9.3.3.8.8.9.8.8.8.8.8.3.3.8.8.8.8.8.8.8.8.8.u.9.8.6.3.L 3.",
"8.3.3.6.8.8.8.8.8.8.8.p.9.8.8.8.9.9.8.8.8.p.8.8.3.P 4.8.8.6.3.8.",
"8.8.3.6.8.8.8.8.8.8.8.a.5.6.8.8.8.7.8.8.8.T 7.9.8.3.3.8.9.8.8.8.",
"6.8.8.8.e.d.e.8.8.8.5.3.3.6.6.8.3.P 7.9.6.L T r.` ^ ( 9.9.8.8.8.",
"6.3.8.8.a.f.s.8.8.8.6.3.6.8.6.6.3.Y T 6.9.8.! =.-.| W 0.8.8.8.8.",
"8.6.8.8.p.a.p.7.9.8.9.e.8.8.6.q.r.w.3.8.e.y.x.v.v.2.+.) 8.9.9.8.",
"8.8.8.8.e.p.e.p.e.9.a.f.8.8.8.r.c.c.w.8.g.F.K.K.K.K.S.h.e.j.s.8.",
"8.6.8.8.I K P 5.7.p.6.7.8.6.6.6.r.r.6.y.F.Y.Y.I.U.Y.Y.F.d.p.e.p.",
"8.6.8.8.9.6.Y P R T D D 6.6.9.8.8.q.t.D.Y.Y.U.B.V.L.Y.P.l.L 7.7.",
"8.f.a.9.9.9.6.Y J K 4.6.6.6.8.6.4.y.S.U.U.U.m.+.O.n.G.H.l.L K L ",
"8.s.a.p.5.6.R U 4.4.8.8.8.6.3.3.t.N.V.C.C.V.b.U Z B [ ~ 3.3.3.3.",
"8.L 7.u.P U W [ E 8.8.8.e.s.8.y.D.P.K.J.Z.L.L.A.S , , < F 3.3.8.",
"8.3.P P L Y E { / 6.8.8.p.s.r.z.m.B.n.@.O.n.B.M.A + + 6 S H 3.6.",
"e.3.Y I 3.3.( / w._ r.r.i._ =.,.>.#.c e * l X.#.m @ 2 7 F 3.7.7.",
"e.8.8.8.6.6.0._ *.1.1.1.*.&.:.;.#.c q X . q N C m 3 7 9 H 3.7.p.",
"9.8.7.9.6.0.` 1.:.>.%.<.-.,.<.$.] w X   o . $ 1 4 8 9 H 3.L K 5.",
"8.8.7.p.6.` :.;.%... .%.>.<.<...t $ + o o O > 5 9 D H L 3.3.3.K ",
"8.8.L 6.0.o.;.X.z h s x ..;.<.} m @ @ @ @ O 4 8 3 9 3.3.3.6.6.8.",
"8.8.6.6.C j d d s b m b s  .X.] n % & 3 6 @ 4 3 S H 3.6.8.8.8.8.",
"9.8.6.3.B a d f N & & & - s h v C 3 6 9 S S 6 S 3.3.7.7.e.f.p.8.",
"e.8.3.3.B p y l { @ O O - p z X.Q 9 S D H L L ) 0.3.P 3.p.6.L 8.",
"d.6.3.3.M r u h | B M * 0 y d k V J L 3.3.3.6.x.z.q.L P 5.L 3.8.",
"8.6.3.P Z w u d l ] ' i y y u = m J P 3.3.6.q.r.r.q.3.3.L 4.8.9.",
"8.6.3.H 8 b 0 p d g g u u y 0 : 1 9 H 3.4.8.8.8.q.8.8.3.3.8.8.8.",
"8.6.3.9 5 , b = i u u u i 0 : , 9 9 3.3.3.4.6.3.3.6.6.6.8.8.8.8.",
"9.3.3.H 4 @ # X : e e = * ; & 3 9 F 3.9.9.3.3.3.3.3.3.8.8.8.8.9.",
"8.9.6.L S 3 + @ % $ m $ % & & 6 9 3.8.j.f.3.3.6.3.3.6.3.8.8.8.e.",
"8.f.s.5.G 7 3 @ @ @ @ @ 3 @ 3 7 S L 6.a.a.6.5.7.3.3.8.8.8.8.8.e.",
"8.p.a.6.K D 7 3 2 & 2 @ 3 4 7 9 L 3.3.L u.u.u.H 3.8.8.9.e.8.8.e."
};
