/* XPM */
static char *_f152371e93245d5f4623b419d5cc2c2fjwzwUncVPHrflT9[] = {
/* columns rows colors chars-per-pixel */
"32 32 11 1 ",
"  c None",
". c #181425",
"X c #771F36",
"o c #A22633",
"O c #F77622",
"+ c #B03152",
"@ c #FF0044",
"# c #F6757A",
"$ c #FEAE34",
"% c #FEE761",
"& c white",
/* pixels */
"                                ",
"                                ",
"           .........            ",
"         ..+++++++++..          ",
"       ..+++++++++++++..        ",
" ......++++++@@@##++++++....... ",
".++++++++++@@@@@@###+++++++++++.",
".XXXX+++++@@@@@@@@@##+++++XXXXX.",
" .XXX++++@@@@@@@@@@@##++++XXXX. ",
"  .X++++@@@@@@@@@@@@@@@++++XX.  ",
"   .++@@@@@@@@@@@@@@@@@@@+++.   ",
"  .+++++@@@@@@@@@@@@@@@++++++.  ",
"  .+++++++++++@@@@+++++++++++.  ",
" .+++OOOo%%%%OXXXXOOOo%%%%O+++. ",
" .+++$$$ooo%&$XXXX$$$ooo%&$+++. ",
" .+++$$$ooo%%$XXXX$$$ooo%%$+++. ",
" .+++X$$ooo%$X++++X$$ooo%$X+++. ",
" .++++X$$$$$X+@@@#+X$$$$$X++++. ",
" .+++++XXXXX+@@@@@#+XXXXX+++++. ",
"  .+++++++++@@@@@@@@+++++++++.  ",
"  .+++&+++@@@@@@@@@@@@+++&+++.  ",
"   .++&&++++++++++++++++&&++.   ",
"   .++&&................&&++.   ",
"   .++++++++++++++++++++++++.   ",
"   .++XX@@@@@@@@@####@@@X+++.   ",
"    .++++@@@@@@@@@##@@@++++.    ",
"    .+++++@@@@@@@@@@@@+++++.    ",
"     .++++++++++++++++++++.     ",
"      .++++++++++++++++++.      ",
"       ..................       ",
"                                ",
"                                "
};
