/* XPM */
static char *_18e5ba81ff140b691896e46c16b6ebdVxQILnXzrWl8GFmK[] = {
/* columns rows colors chars-per-pixel */
"32 32 96 2 ",
"   c #1B1426",
".  c #1B1727",
"X  c #1D1526",
"o  c #1D1527",
"O  c #1B1827",
"+  c #1F1828",
"@  c #1D1A29",
"#  c #1F1B29",
"$  c #201627",
"%  c #211628",
"&  c #201828",
"*  c #201D2B",
"=  c #201E2B",
"-  c #241E2E",
";  c #731F35",
":  c #771F36",
">  c #781F37",
",  c #7D1E37",
"<  c #792037",
"1  c #7A2236",
"2  c #7C2237",
"3  c #7C2536",
"4  c #7F2736",
"5  c #7A2038",
"6  c #A22633",
"7  c #A42A34",
"8  c #A62E35",
"9  c #A73136",
"0  c #F67523",
"q  c #F37225",
"w  c #A72F4F",
"e  c #B22F51",
"r  c #B52E51",
"t  c #A93050",
"y  c #AA3050",
"u  c #AD3050",
"i  c #AD3051",
"p  c #AF3151",
"a  c #B13052",
"s  c #B03152",
"d  c #B23052",
"f  c #B33551",
"g  c #B13555",
"h  c #B33959",
"j  c #FA0345",
"k  c #FE0144",
"l  c #FF0245",
"z  c #FD0546",
"x  c #FE0747",
"c  c #F56F77",
"v  c #F27178",
"b  c #F67078",
"n  c #F57479",
"m  c #F6757A",
"M  c #F9A734",
"N  c #F9AA35",
"B  c #FCAB34",
"V  c #FEAD34",
"C  c #FEAE34",
"Z  c #849974",
"A  c #8AA178",
"S  c #8CA27A",
"D  c #8EA57C",
"F  c #FCDF5E",
"G  c #FCE361",
"H  c #FEE761",
"J  c #FEE867",
"K  c #95AD83",
"L  c #95AB85",
"P  c #97AE87",
"I  c #97B681",
"U  c #98B186",
"Y  c #9EBF86",
"T  c #99B188",
"R  c #9AB188",
"E  c #9CB48A",
"W  c #9CBA88",
"Q  c #9DBB88",
"!  c #9DB88A",
"~  c #9FBA8C",
"^  c #A0BB8C",
"/  c #A2BE8C",
"(  c #A3C18D",
")  c #A5C68D",
"_  c #A9CB8F",
"`  c #A8CD8C",
"'  c #A9CD8F",
"]  c #AAD18E",
"[  c #ACD190",
"{  c #B0D892",
"}  c #F6F6F6",
"|  c #FAF3F5",
" . c #FFFBF4",
".. c #FCF7F8",
"X. c #FEFBFC",
"o. c white",
/* pixels */
"E E E E ( E E E E E E E E E E E E E E E E E E E ) E E E E E E E ",
"E ) E E ^ E E ) E E E E E E E E E E E E E ) E E ^ E E ) E ' E E ",
"E ^ E E E E E ^ E E ] O . . . . . . . = E ^ E E E E E E ( E E E ",
"E ^ E E E { { E P . & i i i i i i i i w O = E [ { { E / E ( E E ",
"E E E E { Y ] . & i i s s s s s s s d d i w O = ! _ E E E { ' E ",
"P . . O . . & i i s s s e k k z n v d d g i p t O . . . O O # E ",
"& i i i i i i s s s e k k k k k x n n v i p p p i i i i p t t O ",
". > > > 5 s s s s r k k k k k k k k x n v d d p i i > > > > ; . ",
"` X : : 2 s s s e k k k k k k k k k k x n v s s s i 5 2 > ; @ T ",
"Y Z X > i s s e k k k k k k k k k k k k k k j s s s y > > O ! E ",
"Z E I $ s r k k k k k k k k k k k k k k k k k k j i s y @ E ~ E ",
"! P + i s i e r k k k k k k k k k k k k k k k e s e s s w @ E E ",
"! P % i s i s s e s e s r r k k k k s s s e s s e s s d y @ E E ",
"P $ i s f 0 q q 8 G G G F q > > , 2 0 0 q 8 G G G G q s s w # E ",
"P X e e f C C N 6 7 9 J  .M : : 2 3 C C M 6 7 9 J  .N s s y # E ",
"P & i s f C C N 6 6 8 H H M : : : 2 V V N 6 6 8 H J N s i w # E ",
"P + p s w 2 C N 6 6 8 H N 5 p p i i 3 V N 6 6 8 H N 2 s s y @ E ",
"P + s s w w 6 C V N V N 5 e k k z v w 6 C C N V M 2 s s s y @ E ",
"P . i s i i i 2 2 2 5 2 s k k k j j v w 3 2 5 5 2 s s s s i @ E ",
"E L # g s s s i i y s e k k k l j j j j i s i s y s s s y & U E ",
"^ P X e s h | s s e k k k k k l k k k k k j e i h | p p y @ E E ",
"E E P X s h o.| s s r s e e e e p e e e e e e h X.X.d y # T E E ",
"E E P X s h o.}   . X .   .   . o o o . . . . = o...d i @ E ) E ",
"E T P X s i g d u i i i s t s t i i i i i i u i g p p y @ E ^ E ",
"E E ^ X i i 2 , l l k k k j k k x n m m b k k j 1 p e t @ E ~ E ",
"E E ^ L % s s i r l k k k k k l k x m b k k j e p p y = E E E E ",
"E E ^ P X s s s p r l l k l k l k k k l k k d p p p t @ ) E E E ",
"E E E E P $ s s e e e e e e e e e e e p d e i i p p * R ~ E E E ",
"E { { E E U $ s e p e t e p p p s e p e i d d e y & T E ~ E E E ",
"E D Y { E E L X . O . . .   . o . . . .   @ O . = T E E E E E E ",
"E K Y D E E E E T T ! P ~ P T T T S P T T Q T E E E E E { ` E E ",
"E E A E E E E E E E E E E E E E E E E E E E E E E E E E E W ! ! "
};
