/* XPM */
static char *result[] = {
/* columns rows colors chars-per-pixel */
"32 32 196 2 ",
"   c #3A3136",
".  c #761F36",
"X  c #7B1F37",
"o  c #542E3D",
"O  c #413E3C",
"+  c #59343D",
"@  c #573B3F",
"#  c #692438",
"$  c #6F243E",
"%  c #712439",
"&  c #7D223C",
"*  c #43413E",
"=  c #473F42",
"-  c #5D3B41",
";  c #6B2D41",
":  c #7D2742",
">  c #732C42",
",  c #7B2F44",
"<  c #6B3644",
"1  c #653C46",
"2  c #6D3A48",
"3  c #753346",
"4  c #7C3146",
"5  c #763A49",
"6  c #7F3850",
"7  c #494A44",
"8  c #5B4245",
"9  c #554A47",
"0  c #4D5749",
"q  c #505847",
"w  c #5C514B",
"e  c #5D5B53",
"r  c #674549",
"t  c #6A444C",
"y  c #6F5053",
"u  c #59654E",
"i  c #59674F",
"p  c #5C6452",
"a  c #5D6C53",
"s  c #5F7054",
"d  c #656658",
"f  c #6A6A5B",
"g  c #627355",
"h  c #657B55",
"j  c #66755A",
"k  c #667959",
"l  c #697B5C",
"z  c #6F6C60",
"x  c #697662",
"c  c #6D7D63",
"v  c #747C65",
"b  c #BC0F3C",
"n  c #82243E",
"m  c #AD3733",
"M  c #AE463F",
"N  c #B5433B",
"B  c #BF5536",
"V  c #BB6238",
"C  c #CD5B2F",
"Z  c #C7483D",
"A  c #C25B38",
"S  c #D3573C",
"D  c #D96B2D",
"F  c #C66836",
"G  c #CA7535",
"H  c #C1733E",
"J  c #DA7A36",
"K  c #E27F2D",
"L  c #B81442",
"P  c #B61A45",
"I  c #872944",
"U  c #852A45",
"Y  c #8D2E49",
"T  c #9A2747",
"R  c #932946",
"E  c #932B49",
"W  c #9A2D4A",
"Q  c #833046",
"!  c #823D55",
"~  c #A32146",
"^  c #AA2C47",
"/  c #A32D4D",
"(  c #AC2D4E",
")  c #B52B4F",
"_  c #BC284F",
"`  c #A13345",
"'  c #A43C43",
"]  c #A4314A",
"[  c #AA314D",
"{  c #B5344F",
"}  c #BA344C",
"|  c #B5394F",
" . c #AA2F50",
".. c #B42D50",
"X. c #AD3151",
"o. c #A93655",
"O. c #B23352",
"+. c #B83D52",
"@. c #DF0F47",
"#. c #CE1A46",
"$. c #CC1E4C",
"%. c #DC1349",
"&. c #DB1648",
"*. c #EC0A46",
"=. c #EB0E48",
"-. c #F50544",
";. c #FE0144",
":. c #F00946",
">. c #FB0A48",
",. c #EA1444",
"<. c #E11148",
"1. c #FB1F52",
"2. c #C2234C",
"3. c #CA214C",
"4. c #CB334F",
"5. c #C93657",
"6. c #EA224A",
"7. c #EE2754",
"8. c #F32152",
"9. c #FA2F5A",
"0. c #EC315A",
"q. c #F6365C",
"w. c #B44A46",
"e. c #A4425D",
"r. c #B3475D",
"t. c #B14663",
"y. c #B84C68",
"u. c #B2516C",
"i. c #C74B42",
"p. c #C75548",
"a. c #C6435C",
"s. c #D87D4D",
"d. c #CD7955",
"f. c #D87954",
"g. c #CB4B61",
"h. c #D04F64",
"j. c #EC4C65",
"k. c #EA586B",
"l. c #C2677F",
"z. c #6E845E",
"x. c #6F8361",
"c. c #728365",
"v. c #748965",
"b. c #778A68",
"n. c #76896A",
"m. c #798C6B",
"M. c #7C916C",
"N. c #7F986D",
"B. c #7F9370",
"V. c #D88939",
"C. c #DE9138",
"Z. c #F9942C",
"A. c #E18B37",
"S. c #FAA934",
"D. c #80976E",
"F. c #819573",
"G. c #859C75",
"H. c #859778",
"J. c #899E79",
"K. c #89A276",
"L. c #8DA37C",
"P. c #8EA97C",
"I. c #90A77F",
"U. c #91AB7E",
"Y. c #92B07C",
"T. c #D78C45",
"R. c #D38D4F",
"E. c #D3835A",
"W. c #E3B05E",
"Q. c #E7BA63",
"!. c #FACD5C",
"~. c #EFCB6F",
"^. c #FCD570",
"/. c #C87288",
"(. c #B88091",
"). c #90A780",
"_. c #95AD84",
"`. c #98AF86",
"'. c #96B283",
"]. c #99B286",
"[. c #9CBB85",
"{. c #9CB48A",
"}. c #9EBA8A",
"|. c #A1BD8B",
" X c #C28D9D",
".X c #D18A9C",
"XX c #CF9CA9",
"oX c #DCABB8",
"OX c #9FC087",
"+X c #A2C48A",
"@X c #A5C88C",
"#X c #A8CC8E",
"$X c #ABD08F",
"%X c #AACB91",
"&X c #ADD192",
"*X c #B3D997",
/* pixels */
"|.{.{.{.&X*X@X{.{.{.{.|.|.|.I.+X{.{.{.|.{.{.{.{.{.{.}.OX{.}.&X&X",
"|.{.{.{.+X#X|.|.|.{.{._.J.I.|.G.{.{.{.|.}.{.{.{.{.{._._.+XOX[.$X",
"{.#X#X}.L.P.].|.|.`.{.`.{._.K.`.{.|.{.|.{.{.{.%X&X+X{._.'.'.K.K.",
"{.I.+X{.].`.{.{.|.`.|.|.{.{.`.|.{.{.{.{.{.{.{.].}.}.{.{._.L._.].",
"{.`.).`.{.{.{.{.{._.H.x = = = 7 O = e H.OX}.{.].)._.{.{.]._.{.{.",
"{.{.`.`.{.{.{.).H.f t 5 I I I I I I 3 r f B._.{.`.`.{.}.{.{.{.{.",
"].{.).c c c x f y 6 R / _ $.$.5.g.O. .E 4 y f x x x x m._.{.{.{.",
"].`.z 2 5 t 2 4 Y W .._ %.:.:.6.k.h.a.O./ Y 3 2 2 2 2 t v {.{.{.",
"].`.7 $ & n R / ( ) 3.=.;.;.;.>.9.0.k.a.O.[ / R I & & # e |.{.].",
"]._.d - # & / ( ..$.*.;.;.;.;.;.;.;.q.j.5.) ../ n . # 1 c.[.{.{.",
"_.).B.d o U ( _ $.*.;.;.;.;.;.;.;.;.>.1.8.#._ ^ R % + d K.Y.[.}.",
"_._.K.c 8 Y ..$.@.-.;.;.;.;.;.;.;.;.;.;.;.<.3._ / : 9 c N.K.U.+X",
"_.[.K.a < W } } 3.&.6.6.6.,.-.-.-.,.,.,.6.4.r.+.O.W 2 p N.F.J.Y.",
"_.P.M.9 Q [ i.S Z w.d.E.E.p.b b b Z S N w.d.E.f.p./ 3 w m.L.).L.",
"_.M.l o W | J Z.D A T.Q.^.A.& . X K Z.C B R.~.^.f.O.E 1 v L._.{.",
"_.J.a o W | V.S.V.m N R.^.C.X X X A.S.F m N W.!.s.| E 1 c.I.].{.",
"[.I.c o E ( ` H J B F C.V.R 2.2.5.' V.D B A C.d.m / E 1 n.+X+X{.",
"].L.c o W ../ w.V G G V M $.-.;.q.a.M F G G V ' / X.E 1 c D.[.@X",
"_.L.D.w 4 / .. .] ` ` ^ #.-.;.;.>.8.2.` ` ` ] / X./ 3 w n.J.G.Y.",
"_.L.c.g 2 W y./.u.( $.@.*.-.-.;.-.:.=.@.2.O.l./.y.E < p F.P.U.P.",
"].L.m.c 7 U y.oXXXe.T ~ ~ ~ ~ ~ ~ ~ ~ ~ W e.oXoXu.3 9 l F.P._._.",
"].L.F.c.7 4 t..X(.! > % $ ; $ $ % % % $ > !  X.Xy.< 0 b.P.U._.{.",
"{.P.G.n.7 4 X.e.o.P L L L L L L +.r.r._ P P t.t.o.3 0 N.K.K.`.{.",
"}.).G.m.a - Y / ( #.-.-.-.-.-.-.8.k.k.8.:.$.) ( U @ a M.M.J._.{.",
"}.).K.G.z.7 , / O._ %.-.*.:.:.:.:.0.7.=.%._ { / ; 7 l m.G._.].{.",
"]._.L.G.c.i r U / X._ $.$.$.$.$.$.3.$.$._ ..W Q 8 d c.B.I._.{.{.",
"{.].).F.v.z.u @ > : : : : : : : : : : : : : $ 9 p x.m.J.).`.{.{.",
"{.]._.J.v.z.s q O                   O       * e k v.F.P._.].{.{.",
"{.|.{.I.G.c.k g a a a p i i p p p p h h a a g k c.m.G.I.`.{.+X{.",
"{.#X$X`.J.D.n.l j g s s s a s a a a h h g g z.z.n.F.L._.`.{.|.{.",
"{.@X+X'.I.G.F.c.c l l l z.g j j j k i h l z.l c.F.J._.}.{.{.|.{.",
"@X@XL._.).I.H.F.m.c.c.x.c.x.c.x.c.c.g x.k x.z.m.J.I.`.|.`.{.{.{."
};
