/* XPM */
static char *result[] = {
/* columns rows colors chars-per-pixel */
"32 32 92 1 ",
"  c #525F47",
". c #56644A",
"X c #59664E",
"o c #57684B",
"O c #5A6A4E",
"+ c #5E724F",
"@ c #5C6A52",
"# c #5F7251",
"$ c #627255",
"% c #657857",
"& c #657559",
"* c #6A7C5D",
"= c #6D7C60",
"- c #6F875E",
"; c #6F8161",
": c #728464",
"> c #748B64",
", c #778A6A",
"< c #7A8D6B",
"1 c #7E926E",
"2 c #7F9271",
"3 c #80966F",
"4 c #829C6E",
"5 c #829673",
"6 c #859C73",
"7 c #879C78",
"8 c #899E79",
"9 c #94997E",
"0 c #89A675",
"q c #8CA37B",
"w c #8EA97A",
"e c #90A67F",
"r c #91AB7E",
"t c #94B27F",
"y c #9D9C87",
"u c #91A780",
"i c #94AC83",
"p c #98AF86",
"a c #97B184",
"s c #99B286",
"d c #9CBC85",
"f c #9CB48A",
"g c #9EBA8A",
"h c #A7A08F",
"j c #A1B38E",
"k c #A0BB8C",
"l c #ADA791",
"z c #AEAA96",
"x c #B3AD9A",
"c c #ADBB9A",
"v c #B5B29C",
"b c #B3BB9C",
"n c #B6B1A0",
"m c #BBB4A3",
"M c #BEB8A6",
"N c #C3BDAC",
"B c #A0C387",
"V c #A3C38B",
"C c #A5C88B",
"Z c #A9CC8E",
"A c #ABD08F",
"S c #A8C790",
"D c #ABCD92",
"F c #B2C69B",
"G c #B4CA9B",
"H c #ADD293",
"J c #B0D595",
"K c #B5DD98",
"L c #C5C3AE",
"P c #C7C1B0",
"I c #CAC4B4",
"U c #CBCDB4",
"Y c #CFC9B9",
"T c #D2CBBC",
"R c #D1D2B9",
"E c #D5D8BE",
"W c #D5CFC0",
"Q c #D7D1C1",
"! c #DAD4C4",
"~ c #DED7C8",
"^ c #DED9CB",
"/ c #E3DDCB",
"( c #E3DED0",
") c #E5E0CE",
"_ c #EAE2CF",
"` c #E6E1D3",
"' c #EAE5D6",
"] c #EBE7D8",
"[ c #EDE9D9",
"{ c #F3EBD6",
"} c #F3EDDA",
"| c #F4EFE0",
/* pixels */
"ffffffffffffKDffffffffffffffffff",
"fkfffKKfffffZCeCfffVffffgfCffCHS",
"fkfffCHfCfff8qC6fffVffffffeVCdVk",
"ffHZf6wfVfffff6ffkfkfffJAffwaw6e",
"ffqCffffkfffjffffffffffrdfff0iff",
"fffqfffffffACfffZfffAfff0sffffff",
"fffffffffffk0fffqBfj6Cffffkjffff",
"fafffJJffff8ffpfqtfff6Cfffkfffff",
"kfpffZVVfUERUUUUUULkfffffkffffff",
"fffffHVFG/'_/////)!FcfffkffHZkff",
"ffaffq6T)}{{}{{{{{}`~ifffffZCVkk",
"VffffjP/}}}}}}{{}{{}}PfsfffqadVd",
"VfHZbNIY/{}}}|||}|})YIIcDJjfw8tt",
"kfZBbP^'TTTYMPIITII!(``QLCgfffir",
"ff5MPY'}{!QYIPLI!^^``'['^Ipfffff",
"ffqMY!^[[})YYIIT^(`^)`'''`Ipffff",
"fkrMIT/}[{/TQIITYQ^`(`'][[^NSHVs",
"fsqlNN/((/QYTTTTW^^^`']][]^m7aBV",
"si8hlnYTQQYIITTTY^!^(`]]'(~niqwa",
"si8*9hvNNIIIIIYTIYQ^^^('(^Wxuiui",
"si8:==hzhvNNIINNYMMmMIINNMc1qias",
"fa8<=$@XllvvvmmmmmmMxvxxy%-20isf",
"fsq5:*$@XXXlllllllllX X@@#;16usf",
"fgu73:=$%$@XXXo##OOO@@@#$@>>2usf",
"fdiuw,<---$@@@..+#@$$$&***:<qiff",
"fffir604>>**&&$@#%&&*::<<2<qifff",
"fffp0tt0,2<,:===&*::,15778uipfff",
"ffffs6d1qq75522<<15578qqiipfffff",
"ffffff6piisuqqq8q8VVeiispffffkgf",
"ffJJffffffgigiiiiiZCssHffffffggf",
"CfCAffffffffVfffsf0kVCqfffCffgff",
"0VVqffffffffffffff6d6s6pffkfffff"
};
