/* XPM */
static char *_143c29f52064547ab7329271bf9269601CCpg7IqrAenZQT[] = {
/* columns rows colors chars-per-pixel */
"32 32 87 1 ",
"  c #8AA178",
". c #8EA57C",
"X c #91A97F",
"o c #93AB81",
"O c #95AD83",
"+ c #96AF84",
"@ c #9EBF86",
"# c #9EB688",
"$ c #9CB48A",
"% c #9DB888",
"& c #9DB988",
"* c #9CBA88",
"= c #9DBB88",
"- c #9FBA8C",
"; c #A0BB8C",
": c #A1BD8C",
"> c #A2BE8D",
", c #A8A190",
"< c #ABA591",
"1 c #ADA791",
"2 c #AFA996",
"3 c #AFAA97",
"4 c #B3AD9A",
"5 c #B2AD9B",
"6 c #B6B09C",
"7 c #B7B19D",
"8 c #BAB3A1",
"9 c #BCB5A4",
"0 c #BFB8A7",
"q c #C0B9A9",
"w c #C0BAA9",
"e c #C1BAA9",
"r c #C3BDAC",
"t c #C5BEAE",
"y c #A3C18D",
"u c #A4C28E",
"i c #A5C68D",
"p c #A7C68E",
"a c #A8CA8E",
"s c #A9CB8F",
"d c #A9CD8F",
"f c #ACD190",
"g c #B0D892",
"h c #C6C0AF",
"j c #C7C0B0",
"k c #C9C3B3",
"l c #CAC4B5",
"z c #CCC6B6",
"x c #CEC8B8",
"c c #CFC8B8",
"v c #CFC9BA",
"b c #D1CBBB",
"n c #D1CBBC",
"m c #D5CEBC",
"M c #D5CFC0",
"N c #D7D1C3",
"B c #D9D2C3",
"V c #D9D3C4",
"C c #DCD6C5",
"Z c #DED7C8",
"A c #DCD8C9",
"S c #DFD8C8",
"D c #DED9CB",
"F c #E0D9C7",
"G c #E2DBC9",
"H c #E1DCCB",
"J c #E1DCCD",
"K c #E6DFCC",
"L c #E3DED0",
"P c #E6DFD0",
"I c #E7E3D1",
"U c #E7E2D4",
"Y c #E9E4D3",
"T c #EDE6D3",
"R c #EAE5D6",
"E c #ECE8D8",
"W c #EEEADA",
"Q c #F3EBD6",
"! c #F0EBDB",
"~ c #F2ECD9",
"^ c #F4ECD8",
"/ c #F4EEDB",
"( c #F4EFDB",
") c #F0ECDC",
"_ c #F4EFDE",
"` c #F4EFDF",
"' c #F4EFE1",
/* pixels */
"$$$$y$$$$$$$$$$$$$$$$$$$i$$$$$$$",
"$i$$;$$i$$$$$$$$$$$$$i$$;$$p$d$$",
"$;$$$$$;$$ggy#$$i$$i$;$$$$$$y$$$",
"$;$$$gg$$$f@@#$$i$$;$$$fgg$;$y$$",
"$$$$g@g$$$. @&$$;$$$$$&@@a$$$ga#",
"$$$g@@ $$$$$ X$$$$$$$$@  .$$gy@$",
"$$$   $$$$$$$$$$ggg$$$ $$$$$X X$",
"$$$gg$$$a$y$$i$$g@&$ag$$$$y$$$$$",
"g@@@@$$$>$$i$;$$@&@@$f$$$$$$$$a$",
"@ @@@$$$;$CTKFFFZHb @o$$$gd$$$-$",
" $@@ $$$mK/Q^_QQQQQYC$$i$f@%$$-$",
"$$  $$$hJQQ/^Q//_QQ_~h$-$.@%@$$$",
"$$$$$$rlnG)Q/_)'__QKnkl$$$X. $$$",
"$$$$i$rDYnnnbwklnkkVPUPva$$$$$$$",
"$$$$;wkY~!BMbkjjVDDPLUWUk$$$$$$$",
"$$$$$wVD)!~PcckcDLLLLIEEYl$$g$$$",
"$$fy$0nJ~QWCNNjccNDLLUYWWD0f-$$$",
"$$@@f29CJHDNczNNNLDDIYWWYD9-X$$$",
"$$ @@f,600kjhlcclnNAZDIIDN5.$$$$",
"$$$  @$,2<6rjhlhc909ekcet3$$$$$$",
">$$$$ $$$116688889805554$$if$$$$",
"$$$$$$$$$$>$11111111i>$$$f%a$$$$",
"$$$i$$g$$$$$$$$ $$$$i@&#i@%.$$a$",
"$$$-$$@f$f$$$$$$$i$$ -;@=% $$$-$",
"$$i$$$-@a@$$$i$$$--$$o #==o$$$-$",
"$$-$$$.@@.$y$-$$$$-$$$$. .$$$$$$",
"$$>$$$$X@.$-$$$g$$$$$$$$$$$$i$$$",
"$$$$$i$$O$$$$$$ d$df$$$$$$$$-$$$",
"$gg$$-$$$$$$i$$+@@@ $i$a$$$$-$$$",
"$.@f$$$i$$i$-$$$.$o$$-$-$$$$$$$$",
"$+@.$$$>$$>$-$$$$.$$$-$y$$$$gd$$",
"$$ $$$$$$$$$$$$$$$$$$$$$$$$$$==="
};
