/* XPM */
static char *f8e4ccdfa87c4adddc19f9b884ca473fbWvqYt43LUv59JCx[] = {
/* columns rows colors chars-per-pixel */
"32 32 14 1 ",
"  c None",
". c #181425",
"X c #503B1C",
"o c #583D1D",
"O c #99502E",
"+ c #FF0044",
"@ c #B38B4E",
"# c #B18C50",
"$ c #D4B079",
"% c #F8CF90",
"& c #EFE5A6",
"* c #FFF8CA",
"= c #FFF1DD",
"- c #FFFCF7",
/* pixels */
"                                ",
"                                ",
"             OOOOOO             ",
"          OOO@@@$$$OOO          ",
"         O@@@$$$***&&&O         ",
"        O@$$$$$$***--*&O        ",
"       O@$$$$$$$****--*&O       ",
"      O@$$$$$$$$*****--*&O      ",
"     O@$$$$$$$$$*****---*&O     ",
"     O@$$$...$$$****...-*&O     ",
"     O@$$.....$$***.....-*O     ",
"    O@$$$.....$$***.....-*&O    ",
"    O@$$$.X+X.$$***.X+X.-*&O    ",
"    O@$$$XX+XX$$***XX+XX-*&O    ",
"    O@$$$XXXXX$$***XXXXX**&O    ",
"    O@$$$%XXX%$$***=XXX***&O    ",
"    O@$$$$%%%$$$**********&O    ",
"     O@$$$$$$$$...*******@O     ",
"     o@@$$$$$$.....*****@@o     ",
"     o@@@@$$$$.%-..***@@@@o     ",
"      o@@@@$$$%$*--**@@@@o      ",
"       o@@@$$$$$*****@@@o       ",
"        o@@$$$$$*****@@o        ",
"         o@$$$$$*****@o         ",
"         o@..$$..**..@o         ",
"         o@..$$..**..@o         ",
"         o@XX$$XX**XX@o         ",
"         o@XX$$XX**XX@o         ",
"         o@..##..##..@o         ",
"          oooooooooooo          ",
"                                ",
"                                "
};
