/* XPM */
static char *dc1a1ede78014996dda19f9cd05f8e04r2pJHlBb1g5hBpTL[] = {
/* columns rows colors chars-per-pixel */
"32 32 21 1 ",
"  c #523B40",
". c #895A45",
"X c #D1851E",
"o c #8AA178",
"O c #8EA57C",
"+ c #91A97F",
"@ c #FFD569",
"# c #95AD83",
"$ c #9EBF86",
"% c #9CB48A",
"& c #9DBB88",
"* c #A0BB8C",
"= c #A2BE8C",
"- c #A3C18D",
"; c #A4C28E",
": c #A5C68D",
"> c #A9CB8F",
", c #A9CD8F",
"< c #ACD190",
"1 c #B0D892",
"2 c white",
/* pixels */
"%%%%-%%%%%%%%%%%%%%%%%%%:%%%%%%%",
"%:%%*%%:%%%%%%%%%%%%%:%%*%%:%,%%",
"%*%%%%%*%%11;%%%:%%:%*%%%%%%-%%%",
"%*%%%11%%%<$$%%%:%%=%%%<11%=%-%%",
"%%%%1$1%%%Oo$&%%*%%%%%&$$>%%%1>%",
"%%%1$$o%%%%%o+%%%%%%%%$ooO%%1$$%",
"%%%ooo%%%%%%%%%%111%%%o%%%%%+o+%",
"%%%11%XXXXXX@@@@@@@@22222222@@X%",
"1$$$$%X..X.XXX@XX@X@@2@X22@2@X.%",
"$o$$$%X..X.XXX@XX@X@@2@X22@2@X.%",
"o%$$o%X..X.XXX@XX@X@@2@X22@2@X.%",
"%%oo%%X..X.XXX@XX@X@@2@X22@2@X.%",
"%%%%%%..       ......XXXXXXXX..%",
"%X..X.XXX@XX@XXX.......XX.%%%%%%",
"%X..X.XXX@XX@X@@@@X@@@@@X.%%%%%%",
"%X..X.XXX@XX@X@@2@X@@@2@X.%%1%%%",
"%X..X.XXX@XX@X@@2@X22@2@X.<<&%%%",
"%X..X.XXX@XX@X@@2@X22@2@X.&$+%%%",
"%..       ......XXXXXXXX..OO%%%%",
"%%%oXXXXXX@@@@@@@@22222222@@X%%%",
"*%%%X..X.XXX@XX@X@@2@X22@2@X.%%%",
"%%%%X..X.XXX@XX@X@@2@X22@2@X.%%%",
"%%%:X..X.XXX@XX@X@@2@X22@2@X.%:%",
"%%%*X..X.XXX@XX@X@@2@X22@2@X.%*%",
"%%:%..       ......XXXXXXXX..%*%",
"%%*%X..X.XXX@XX@X@@2@X22@2@X.%%%",
"%%*%X..X.XXX@XX@X@@2@X22@2@X.%%%",
"%%%%X..X.XXX@XX@X@@2@X22@2@X.%%%",
"%11%X..X.XXX@XX@X@@2@X22@2@X.%%%",
"%O$1X..X.XXX@XX@X@@2@X22@2@X.%%%",
"%#$O..       ......XXXXXXXX..>%%",
"%%o%%%%%%%%%%%%%%%%%%%%%%%%%%&&&"
};
