/* XPM */
static char *ea97bcee1bc8431abc07cd0e86580307N5FuNgQHMKQynQDV[] = {
/* columns rows colors chars-per-pixel */
"32 32 13 1 ",
"  c None",
". c #3D3333",
"X c #593E47",
"o c #734C44",
"O c #7A5859",
"+ c #546756",
"@ c #636663",
"# c #B55945",
"$ c #A57855",
"% c #87857C",
"& c #89A477",
"* c #BCAD9F",
"= c #F2B888",
/* pixels */
"                                ",
"                                ",
"                                ",
"                                ",
"                                ",
"                                ",
"                     @@@        ",
"                    @@*@@       ",
"                    @@@%%%      ",
"                    %%%==       ",
"                ....=.===       ",
"               .@@@@.=.=        ",
"              .X@=#X@%          ",
"             o.@@==#@%          ",
"            oo$@@==#@%          ",
"            o$$@X%**%%          ",
"            +&@@@#***%          ",
"           +&&&X@%%***          ",
"           @+&.O@#% **          ",
"           @@@O.O%%             ",
"           X@@OO.%%             ",
"            %X%**=#             ",
"            *O**%==             ",
"            ***%%%=             ",
"            O**%X               ",
"            ***%X               ",
"            ** %%               ",
"            oo %%               ",
"            oO ..               ",
"            Oo ..               ",
"            ooO...              ",
"                                "
};
